<mxfile host="app.diagrams.net" agent="Mozilla/5.0 (Macintosh; Intel Mac OS X 10_15_7) AppleWebKit/537.36 (KHTML, like Gecko) Chrome/134.0.0.0 Safari/537.36" version="26.2.13">
  <diagram name="Page-1" id="WqacrtyBPlfVPJ_BdrDR">
    <mxGraphModel dx="1282" dy="790" grid="1" gridSize="10" guides="1" tooltips="1" connect="1" arrows="1" fold="1" page="1" pageScale="1" pageWidth="1100" pageHeight="1700" math="0" shadow="0">
      <root>
        <mxCell id="0" />
        <mxCell id="1" parent="0" />
        <mxCell id="pPd9gvbIHy4Iwn_Xjr7f-1" value="Vulkan Interface" style="whiteSpace=wrap;html=1;strokeColor=default;fillColor=none;" vertex="1" parent="1">
          <mxGeometry x="140" y="20" width="250" height="160" as="geometry" />
        </mxCell>
        <mxCell id="pPd9gvbIHy4Iwn_Xjr7f-2" value="Backend" style="whiteSpace=wrap;html=1;align=center;verticalAlign=top;fillColor=none;" vertex="1" parent="1">
          <mxGeometry x="580" y="20" width="470" height="400" as="geometry" />
        </mxCell>
        <mxCell id="pPd9gvbIHy4Iwn_Xjr7f-3" value="GUI&lt;br&gt;(many windows)" style="whiteSpace=wrap;html=1;strokeColor=default;fillColor=none;align=left;" vertex="1" parent="1">
          <mxGeometry x="60" y="560" width="380" height="180" as="geometry" />
        </mxCell>
        <mxCell id="pPd9gvbIHy4Iwn_Xjr7f-4" value="Computer API" style="whiteSpace=wrap;html=1;strokeColor=default;fillColor=none;" vertex="1" parent="1">
          <mxGeometry x="760" y="590" width="250" height="160" as="geometry" />
        </mxCell>
        <mxCell id="pPd9gvbIHy4Iwn_Xjr7f-5" value="" style="endArrow=classic;html=1;rounded=0;exitX=1;exitY=0.5;exitDx=0;exitDy=0;" edge="1" parent="1" source="pPd9gvbIHy4Iwn_Xjr7f-3" target="pPd9gvbIHy4Iwn_Xjr7f-4">
          <mxGeometry width="50" height="50" relative="1" as="geometry">
            <mxPoint x="530" y="450" as="sourcePoint" />
            <mxPoint x="580" y="400" as="targetPoint" />
          </mxGeometry>
        </mxCell>
        <mxCell id="pPd9gvbIHy4Iwn_Xjr7f-6" value="Tell to save/load" style="edgeLabel;html=1;align=center;verticalAlign=middle;resizable=0;points=[];" vertex="1" connectable="0" parent="pPd9gvbIHy4Iwn_Xjr7f-5">
          <mxGeometry x="0.1224" y="3" relative="1" as="geometry">
            <mxPoint as="offset" />
          </mxGeometry>
        </mxCell>
        <mxCell id="pPd9gvbIHy4Iwn_Xjr7f-7" value="" style="endArrow=classic;html=1;rounded=0;exitX=0.778;exitY=-0.012;exitDx=0;exitDy=0;entryX=0.5;entryY=1;entryDx=0;entryDy=0;exitPerimeter=0;" edge="1" parent="1" source="pPd9gvbIHy4Iwn_Xjr7f-3" target="pPd9gvbIHy4Iwn_Xjr7f-8">
          <mxGeometry width="50" height="50" relative="1" as="geometry">
            <mxPoint x="530" y="450" as="sourcePoint" />
            <mxPoint x="310" y="580" as="targetPoint" />
          </mxGeometry>
        </mxCell>
        <mxCell id="pPd9gvbIHy4Iwn_Xjr7f-18" value="Make/Move/... view port" style="edgeLabel;html=1;align=center;verticalAlign=middle;resizable=0;points=[];" vertex="1" connectable="0" parent="pPd9gvbIHy4Iwn_Xjr7f-7">
          <mxGeometry x="-0.2691" y="2" relative="1" as="geometry">
            <mxPoint x="-2" y="-9" as="offset" />
          </mxGeometry>
        </mxCell>
        <mxCell id="pPd9gvbIHy4Iwn_Xjr7f-8" value="View port manager" style="whiteSpace=wrap;html=1;verticalAlign=top;fillColor=none;" vertex="1" parent="1">
          <mxGeometry x="250" y="270" width="200" height="180" as="geometry" />
        </mxCell>
        <mxCell id="pPd9gvbIHy4Iwn_Xjr7f-9" value="" style="endArrow=classic;html=1;rounded=0;entryX=0.25;entryY=1;entryDx=0;entryDy=0;exitX=0.12;exitY=-0.007;exitDx=0;exitDy=0;exitPerimeter=0;" edge="1" parent="1" source="pPd9gvbIHy4Iwn_Xjr7f-3" target="pPd9gvbIHy4Iwn_Xjr7f-10">
          <mxGeometry width="50" height="50" relative="1" as="geometry">
            <mxPoint x="170" y="680" as="sourcePoint" />
            <mxPoint x="120" y="540" as="targetPoint" />
          </mxGeometry>
        </mxCell>
        <mxCell id="pPd9gvbIHy4Iwn_Xjr7f-17" value="Changing GUI" style="edgeLabel;html=1;align=center;verticalAlign=middle;resizable=0;points=[];" vertex="1" connectable="0" parent="pPd9gvbIHy4Iwn_Xjr7f-9">
          <mxGeometry x="0.3189" relative="1" as="geometry">
            <mxPoint y="-1" as="offset" />
          </mxGeometry>
        </mxCell>
        <mxCell id="pPd9gvbIHy4Iwn_Xjr7f-10" value="RmlUi" style="whiteSpace=wrap;html=1;fillColor=none;" vertex="1" parent="1">
          <mxGeometry x="70" y="450" width="120" height="70" as="geometry" />
        </mxCell>
        <mxCell id="pPd9gvbIHy4Iwn_Xjr7f-12" value="" style="endArrow=classic;html=1;rounded=0;exitX=0.5;exitY=0;exitDx=0;exitDy=0;entryX=0.114;entryY=0.999;entryDx=0;entryDy=0;entryPerimeter=0;" edge="1" parent="1" source="pPd9gvbIHy4Iwn_Xjr7f-10" target="pPd9gvbIHy4Iwn_Xjr7f-1">
          <mxGeometry width="50" height="50" relative="1" as="geometry">
            <mxPoint x="530" y="450" as="sourcePoint" />
            <mxPoint x="140" y="180" as="targetPoint" />
          </mxGeometry>
        </mxCell>
        <mxCell id="pPd9gvbIHy4Iwn_Xjr7f-20" value="RmlUi render interface calls" style="edgeLabel;html=1;align=center;verticalAlign=middle;resizable=0;points=[];" vertex="1" connectable="0" parent="pPd9gvbIHy4Iwn_Xjr7f-12">
          <mxGeometry x="0.3038" y="1" relative="1" as="geometry">
            <mxPoint x="-8" y="25" as="offset" />
          </mxGeometry>
        </mxCell>
        <mxCell id="pPd9gvbIHy4Iwn_Xjr7f-13" value="" style="endArrow=classic;html=1;rounded=0;exitX=0.75;exitY=1;exitDx=0;exitDy=0;entryX=0.316;entryY=0;entryDx=0;entryDy=0;entryPerimeter=0;" edge="1" parent="1" source="pPd9gvbIHy4Iwn_Xjr7f-10" target="pPd9gvbIHy4Iwn_Xjr7f-3">
          <mxGeometry width="50" height="50" relative="1" as="geometry">
            <mxPoint x="530" y="450" as="sourcePoint" />
            <mxPoint x="580" y="400" as="targetPoint" />
          </mxGeometry>
        </mxCell>
        <mxCell id="pPd9gvbIHy4Iwn_Xjr7f-16" value="RmlUiEvents" style="edgeLabel;html=1;align=center;verticalAlign=middle;resizable=0;points=[];" vertex="1" connectable="0" parent="pPd9gvbIHy4Iwn_Xjr7f-13">
          <mxGeometry x="-0.0152" y="-4" relative="1" as="geometry">
            <mxPoint as="offset" />
          </mxGeometry>
        </mxCell>
        <mxCell id="pPd9gvbIHy4Iwn_Xjr7f-14" value="" style="endArrow=classic;html=1;rounded=0;exitX=0.5;exitY=1;exitDx=0;exitDy=0;entryX=1;entryY=0.25;entryDx=0;entryDy=0;" edge="1" parent="1" source="pPd9gvbIHy4Iwn_Xjr7f-2" target="pPd9gvbIHy4Iwn_Xjr7f-3">
          <mxGeometry width="50" height="50" relative="1" as="geometry">
            <mxPoint x="530" y="450" as="sourcePoint" />
            <mxPoint x="580" y="400" as="targetPoint" />
          </mxGeometry>
        </mxCell>
        <mxCell id="pPd9gvbIHy4Iwn_Xjr7f-15" value="Data Update Events" style="edgeLabel;html=1;align=center;verticalAlign=middle;resizable=0;points=[];" vertex="1" connectable="0" parent="pPd9gvbIHy4Iwn_Xjr7f-14">
          <mxGeometry x="-0.0878" y="2" relative="1" as="geometry">
            <mxPoint y="-1" as="offset" />
          </mxGeometry>
        </mxCell>
        <mxCell id="pPd9gvbIHy4Iwn_Xjr7f-19" value="Diffs/View port changes" style="endArrow=classic;html=1;rounded=0;exitX=0.5;exitY=0;exitDx=0;exitDy=0;entryX=0.75;entryY=1;entryDx=0;entryDy=0;" edge="1" parent="1" source="pPd9gvbIHy4Iwn_Xjr7f-8" target="pPd9gvbIHy4Iwn_Xjr7f-1">
          <mxGeometry width="50" height="50" relative="1" as="geometry">
            <mxPoint x="530" y="450" as="sourcePoint" />
            <mxPoint x="580" y="400" as="targetPoint" />
          </mxGeometry>
        </mxCell>
        <mxCell id="pPd9gvbIHy4Iwn_Xjr7f-21" value="" style="endArrow=classic;html=1;rounded=0;exitX=0.395;exitY=-0.007;exitDx=0;exitDy=0;exitPerimeter=0;entryX=0.25;entryY=1;entryDx=0;entryDy=0;" edge="1" parent="1" source="pPd9gvbIHy4Iwn_Xjr7f-3" target="pPd9gvbIHy4Iwn_Xjr7f-1">
          <mxGeometry width="50" height="50" relative="1" as="geometry">
            <mxPoint x="530" y="450" as="sourcePoint" />
            <mxPoint x="250" y="540" as="targetPoint" />
          </mxGeometry>
        </mxCell>
        <mxCell id="pPd9gvbIHy4Iwn_Xjr7f-22" value="Window creation" style="edgeLabel;html=1;align=center;verticalAlign=middle;resizable=0;points=[];" vertex="1" connectable="0" parent="pPd9gvbIHy4Iwn_Xjr7f-21">
          <mxGeometry x="0.1541" y="-4" relative="1" as="geometry">
            <mxPoint x="-21" y="29" as="offset" />
          </mxGeometry>
        </mxCell>
        <mxCell id="pPd9gvbIHy4Iwn_Xjr7f-30" value="" style="endArrow=classic;html=1;rounded=0;entryX=1;entryY=0.5;entryDx=0;entryDy=0;exitX=-0.001;exitY=0.848;exitDx=0;exitDy=0;exitPerimeter=0;" edge="1" parent="1" source="pPd9gvbIHy4Iwn_Xjr7f-2" target="pPd9gvbIHy4Iwn_Xjr7f-8">
          <mxGeometry width="50" height="50" relative="1" as="geometry">
            <mxPoint x="530" y="450" as="sourcePoint" />
            <mxPoint x="580" y="400" as="targetPoint" />
          </mxGeometry>
        </mxCell>
        <mxCell id="pPd9gvbIHy4Iwn_Xjr7f-31" value="data update events" style="edgeLabel;html=1;align=center;verticalAlign=middle;resizable=0;points=[];" vertex="1" connectable="0" parent="pPd9gvbIHy4Iwn_Xjr7f-30">
          <mxGeometry x="-0.0681" y="1" relative="1" as="geometry">
            <mxPoint x="-4" y="-21" as="offset" />
          </mxGeometry>
        </mxCell>
        <mxCell id="pPd9gvbIHy4Iwn_Xjr7f-32" value="" style="endArrow=classic;html=1;rounded=0;exitX=0.723;exitY=-0.006;exitDx=0;exitDy=0;exitPerimeter=0;entryX=0.75;entryY=1;entryDx=0;entryDy=0;" edge="1" parent="1" source="pPd9gvbIHy4Iwn_Xjr7f-4" target="pPd9gvbIHy4Iwn_Xjr7f-2">
          <mxGeometry width="50" height="50" relative="1" as="geometry">
            <mxPoint x="530" y="450" as="sourcePoint" />
            <mxPoint x="580" y="400" as="targetPoint" />
          </mxGeometry>
        </mxCell>
        <mxCell id="pPd9gvbIHy4Iwn_Xjr7f-33" value="Get/Set circuits" style="edgeLabel;html=1;align=center;verticalAlign=middle;resizable=0;points=[];" vertex="1" connectable="0" parent="pPd9gvbIHy4Iwn_Xjr7f-32">
          <mxGeometry x="-0.5875" y="1" relative="1" as="geometry">
            <mxPoint y="-53" as="offset" />
          </mxGeometry>
        </mxCell>
        <mxCell id="pPd9gvbIHy4Iwn_Xjr7f-40" value="Eval Manger" style="rounded=0;whiteSpace=wrap;html=1;verticalAlign=top;fillColor=none;" vertex="1" parent="1">
          <mxGeometry x="620" y="50" width="120" height="110" as="geometry" />
        </mxCell>
        <mxCell id="pPd9gvbIHy4Iwn_Xjr7f-41" value="Circuit Manager" style="rounded=0;whiteSpace=wrap;html=1;verticalAlign=top;fillColor=none;" vertex="1" parent="1">
          <mxGeometry x="810" y="50" width="200" height="270" as="geometry" />
        </mxCell>
        <mxCell id="pPd9gvbIHy4Iwn_Xjr7f-43" value="Evaluator" style="rounded=0;whiteSpace=wrap;html=1;fillColor=none;" vertex="1" parent="1">
          <mxGeometry x="630" y="90" width="100" height="50" as="geometry" />
        </mxCell>
        <mxCell id="pPd9gvbIHy4Iwn_Xjr7f-37" value="" style="endArrow=classic;html=1;rounded=0;exitX=0.999;exitY=0.556;exitDx=0;exitDy=0;exitPerimeter=0;entryX=0;entryY=0.5;entryDx=0;entryDy=0;" edge="1" parent="1" source="pPd9gvbIHy4Iwn_Xjr7f-1" target="pPd9gvbIHy4Iwn_Xjr7f-43">
          <mxGeometry width="50" height="50" relative="1" as="geometry">
            <mxPoint x="490" y="180" as="sourcePoint" />
            <mxPoint x="540" y="130" as="targetPoint" />
          </mxGeometry>
        </mxCell>
        <mxCell id="pPd9gvbIHy4Iwn_Xjr7f-38" value="State Reading" style="edgeLabel;html=1;align=center;verticalAlign=middle;resizable=0;points=[];" vertex="1" connectable="0" parent="pPd9gvbIHy4Iwn_Xjr7f-37">
          <mxGeometry x="0.6597" relative="1" as="geometry">
            <mxPoint x="-88" y="-15" as="offset" />
          </mxGeometry>
        </mxCell>
        <mxCell id="pPd9gvbIHy4Iwn_Xjr7f-45" value="Window Manager" style="rounded=0;whiteSpace=wrap;html=1;fillColor=none;verticalAlign=top;" vertex="1" parent="1">
          <mxGeometry x="250" y="570" width="180" height="160" as="geometry" />
        </mxCell>
        <mxCell id="pPd9gvbIHy4Iwn_Xjr7f-46" value="Window:&lt;div&gt;Tool Manager&amp;nbsp;&lt;span style=&quot;background-color: transparent; color: light-dark(rgb(0, 0, 0), rgb(255, 255, 255));&quot;&gt;Manager&lt;/span&gt;&lt;/div&gt;&lt;div&gt;&lt;span style=&quot;background-color: transparent; color: light-dark(rgb(0, 0, 0), rgb(255, 255, 255));&quot;&gt;Circuit Views&lt;/span&gt;&lt;/div&gt;" style="rounded=0;whiteSpace=wrap;html=1;fillColor=none;verticalAlign=top;" vertex="1" parent="1">
          <mxGeometry x="260" y="620" width="160" height="85" as="geometry" />
        </mxCell>
        <mxCell id="pPd9gvbIHy4Iwn_Xjr7f-47" value="Circuit" style="rounded=0;whiteSpace=wrap;html=1;verticalAlign=top;fillColor=none;" vertex="1" parent="1">
          <mxGeometry x="820" y="80" width="180" height="70" as="geometry" />
        </mxCell>
        <mxCell id="pPd9gvbIHy4Iwn_Xjr7f-48" value="" style="endArrow=classic;html=1;rounded=0;exitX=0;exitY=0.5;exitDx=0;exitDy=0;entryX=1;entryY=0.25;entryDx=0;entryDy=0;" edge="1" parent="1" source="pPd9gvbIHy4Iwn_Xjr7f-47" target="pPd9gvbIHy4Iwn_Xjr7f-8">
          <mxGeometry width="50" height="50" relative="1" as="geometry">
            <mxPoint x="540" y="440" as="sourcePoint" />
            <mxPoint x="590" y="390" as="targetPoint" />
          </mxGeometry>
        </mxCell>
        <mxCell id="pPd9gvbIHy4Iwn_Xjr7f-49" value="DIffs" style="edgeLabel;html=1;align=center;verticalAlign=middle;resizable=0;points=[];" vertex="1" connectable="0" parent="pPd9gvbIHy4Iwn_Xjr7f-48">
          <mxGeometry x="0.1459" y="-3" relative="1" as="geometry">
            <mxPoint as="offset" />
          </mxGeometry>
        </mxCell>
        <mxCell id="pPd9gvbIHy4Iwn_Xjr7f-50" value="" style="endArrow=classic;html=1;rounded=0;exitX=0.198;exitY=-0.016;exitDx=0;exitDy=0;exitPerimeter=0;entryX=1.002;entryY=0.844;entryDx=0;entryDy=0;entryPerimeter=0;" edge="1" parent="1" source="pPd9gvbIHy4Iwn_Xjr7f-4" target="pPd9gvbIHy4Iwn_Xjr7f-1">
          <mxGeometry width="50" height="50" relative="1" as="geometry">
            <mxPoint x="530" y="440" as="sourcePoint" />
            <mxPoint x="580" y="390" as="targetPoint" />
          </mxGeometry>
        </mxCell>
      </root>
    </mxGraphModel>
  </diagram>
</mxfile>
